#!OML:ASF E:\acrobat2\Project_11_07_03\Capture day 1\Session 1\Acrobat.ASF
:FULLY-SPECIFIED
:DEGREES
313
root 3.75315 28.0133 -29.3574 9.36634 -2.93997 -1.17524
lowerback 3.17494 0.933112 -1.07201
upperback 2.91937 1.22485 -0.858831
thorax 1.21026 0.601857 -0.304608
lowerneck -0.53399 0.260116 0.163211
upperneck 16.1203 0.115802 1.58328
head 4.92163 0.15525 0.468083
rclavicle 0 -2.78299e-015
rhumerus -35.9798 -4.75681 -75.516
rradius 37.9123
rwrist 2.43213
rhand -2.98926 -21.7033
rfingers 7.12502
rthumb 22.7243 -50.3851
lclavicle 0 -2.78299e-015
lhumerus -35.6993 -11.6144 78.0121
lradius 43.0937
lwrist 8.36897
lhand -9.35766 -18.4791
lfingers 7.12502
lthumb 16.6021 10.8308
rfemur -13.6793 3.91069 17.988
rtibia 10.1671
rfoot -7.39516 -17.9073
rtoes 0.121947
lfemur -14.5019 -2.98825 -17.4166
ltibia 19.4181
lfoot -13.861 -11.0409
ltoes 25.3761
314
root 3.74793 28.005 -29.3181 9.34582 -2.78976 -1.27866
lowerback 3.24011 0.800722 -1.19686
upperback 2.839 1.04392 -0.873293
thorax 1.08981 0.510198 -0.247419
lowerneck -0.469983 0.311906 0.3287
upperneck 16.0613 0.171702 1.61907
head 4.89263 0.192919 0.453746
rclavicle 2.68359e-015 4.37326e-015
rhumerus -36.2862 -5.10133 -75.7264
rradius 38.4115
rwrist 2.25118
rhand -2.77978 -21.7761
rfingers 7.12502
rthumb 22.9253 -50.4331
lclavicle 2.68359e-015 4.37326e-015
lhumerus -35.5955 -11.945 78.0508
lradius 42.6774
lwrist 8.44508
lhand -9.29528 -18.4943
lfingers 7.12502
lthumb 16.6622 10.8105
rfemur -13.8965 3.56004 17.86
rtibia 10.4115
rfoot -8.00223 -17.8406
rtoes 0.999223
lfemur -14.5695 -2.95968 -17.4998
ltibia 19.2142
lfoot -13.8821 -10.8456
ltoes 24.6035
315
root 3.74429 27.9996 -29.282 9.31272 -2.59021 -1.4196
lowerback 3.33598 0.662056 -1.2549
upperback 2.80132 0.855676 -0.855524
thorax 0.997254 0.415582 -0.193917
lowerneck -0.480193 0.360264 0.417637
upperneck 16.0052 0.227089 1.65319
head 4.87688 0.226219 0.451724
rclavicle -7.7526e-015 4.77083e-015
rhumerus -36.5242 -5.45363 -75.9175
rradius 38.867
rwrist 2.06757
rhand -2.68646 -21.8357
rfingers 7.12502
rthumb 23.0148 -50.4816
lclavicle -7.7526e-015 4.77083e-015
lhumerus -35.3419 -12.2349 78.1114
lradius 42.1732
lwrist 8.50365
lhand -9.30001 -18.4485
lfingers 7.12502
lthumb 16.6576 10.8568
rfemur -14.1119 3.12766 17.8025
rtibia 10.7044
rfoot -8.81424 -17.7303
rtoes 1.31967
lfemur -14.7453 -2.9521 -17.5111
ltibia 19.1918
lfoot -13.641 -10.7381
ltoes 24.3466
316
root 3.742 27.998 -29.2482 9.26492 -2.36997 -1.57162
lowerback 3.45059 0.540701 -1.26812
upperback 2.79506 0.691464 -0.824212
thorax 0.927196 0.333406 -0.151633
lowerneck -0.509479 0.389043 0.462979
upperneck 15.9397 0.260204 1.67673
head 4.86153 0.245692 0.452734
rclavicle 3.97569e-015 -2.50469e-014
rhumerus -36.7238 -5.87472 -76.0722
rradius 39.2327
rwrist 1.92502
rhand -2.73246 -21.7594
rfingers 7.12502
rthumb 22.9707 -50.4109
lclavicle 3.97569e-015 -2.50469e-014
lhumerus -34.9576 -12.5231 78.1944
lradius 41.5874
lwrist 8.54174
lhand -9.37408 -18.3244
lfingers 7.12502
lthumb 16.5863 10.9868
rfemur -14.3159 2.63114 17.7884
rtibia 11.0281
rfoot -9.77165 -17.5642
rtoes 1.14167
lfemur -15.0011 -2.94925 -17.4898
ltibia 19.3225
lfoot -13.235 -10.6664
ltoes 24.4072
317
root 3.74014 28.0006 -29.2149 9.20196 -2.14805 -1.71421
lowerback 3.56483 0.448482 -1.25981
upperback 2.80658 0.566846 -0.793024
thorax 0.875793 0.271217 -0.121997
lowerneck -0.543474 0.395895 0.478682
upperneck 15.893 0.265802 1.6972
head 4.85283 0.250155 0.456614
rclavicle 3.57812e-015 3.57812e-015
rhumerus -36.9272 -6.37955 -76.189
rradius 39.5006
rwrist 1.84105
rhand -2.93525 -21.5795
rfingers 7.12502
rthumb 22.7761 -50.2549
lclavicle 3.57812e-015 3.57812e-015
lhumerus -34.4731 -12.8146 78.2893
lradius 40.9242
lwrist 8.5502
lhand -9.49835 -18.1582
lfingers 7.12502
lthumb 16.4667 11.1629
rfemur -14.4879 2.09929 17.799
rtibia 11.3596
rfoot -10.8056 -17.3293
rtoes 0.752617
lfemur -15.2957 -2.95049 -17.4646
ltibia 19.5669
lfoot -12.8078 -10.5467
ltoes 24.2362
318
root 3.73966 28.0074 -29.1806 9.12148 -1.96862 -1.84289
lowerback 3.6764 0.399631 -1.22388
upperback 2.82293 0.500856 -0.771433
thorax 0.830833 0.238758 -0.11894
lowerneck -0.571051 0.381949 0.454914
upperneck 15.8836 0.24303 1.73416
head 4.85458 0.239834 0.471044
rclavicle -3.57812e-015 3.97569e-015
rhumerus -37.1577 -6.94022 -76.2703
rradius 39.6713
rwrist 1.79596
rhand -3.28163 -21.4103
rfingers 7.12502
rthumb 22.4437 -50.1262
lclavicle -3.57812e-015 3.97569e-015
lhumerus -33.9182 -13.0913 78.3896
lradius 40.1876
lwrist 8.51435
lhand -9.61172 -18.0084
lfingers 7.12502
lthumb 16.3575 11.3218
rfemur -14.6303 1.53864 17.8258
rtibia 11.7148
rfoot -11.8335 -16.978
rtoes 0.24582
lfemur -15.5731 -2.98399 -17.4532
ltibia 19.8561
lfoot -12.4686 -10.3115
ltoes 23.6831
319
root 3.73963 28.018 -29.143 9.0191 -1.83124 -1.95967
lowerback 3.77303 0.386731 -1.17647
upperback 2.8422 0.483419 -0.750514
thorax 0.796971 0.23066 -0.124174
lowerneck -0.593852 0.35657 0.372811
upperneck 15.9216 0.203977 1.79727
head 4.87004 0.220163 0.502705
rclavicle -3.57812e-015 4.77083e-015
rhumerus -37.4246 -7.48326 -76.3232
rradius 39.7635
rwrist 1.73172
rhand -3.65427 -21.2705
rfingers 7.12502
rthumb 22.0859 -50.0292
lclavicle -3.57812e-015 4.77083e-015
lhumerus -33.3259 -13.2945 78.4902
lradius 39.4039
lwrist 8.4078
lhand -9.65963 -17.884
lfingers 7.12502
lthumb 16.3114 11.45
rfemur -14.714 1.00314 17.8725
rtibia 12.079
rfoot -12.8107 -16.5426
rtoes -0.260201
lfemur -15.7751 -3.08042 -17.448
ltibia 20.1107
lfoot -12.2485 -9.94558
ltoes 22.8335
320
root 3.74048 28.0311 -29.1018 8.90312 -1.75249 -2.08092
lowerback 3.83993 0.403932 -1.10697
upperback 2.86016 0.507225 -0.723868
thorax 0.778227 0.243364 -0.136949
lowerneck -0.612685 0.332094 0.230484
upperneck 16.0059 0.16574 1.88332
head 4.89893 0.199126 0.551667
rclavicle -3.97569e-016 -1.35174e-014
rhumerus -37.7283 -7.92642 -76.3701
rradius 39.7986
rwrist 1.60315
rhand -4.02874 -21.1301
rfingers 7.12502
rthumb 21.7264 -49.9308
lclavicle -3.97569e-016 -1.35174e-014
lhumerus -32.7253 -13.3697 78.5834
lradius 38.6041
lwrist 8.21766
lhand -9.63987 -17.7527
lfingers 7.12502
lthumb 16.3304 11.5797
rfemur -14.7602 0.497349 17.9582
rtibia 12.4828
rfoot -13.6451 -16.0139
rtoes -0.759028
lfemur -15.8779 -3.2498 -17.4305
ltibia 20.2778
lfoot -12.1588 -9.44653
ltoes 21.7701
321
root 3.74288 28.0456 -29.0576 8.77924 -1.74384 -2.22658
lowerback 3.87803 0.451287 -0.989443
upperback 2.87337 0.572996 -0.695062
thorax 0.77092 0.277666 -0.175565
lowerneck -0.609762 0.306766 0.0610071
upperneck 16.1173 0.12506 1.98773
head 4.93257 0.176473 0.610812
rclavicle -7.35503e-015 7.15625e-015
rhumerus -38.058 -8.24693 -76.4357
rradius 39.7753
rwrist 1.40993
rhand -4.40909 -20.9915
rfingers 7.12502
rthumb 21.3611 -49.8341
lclavicle -7.35503e-015 7.15625e-015
lhumerus -32.1369 -13.3149 78.6579
lradius 37.8243
lwrist 7.952
lhand -9.57117 -17.5695
lfingers 7.12502
lthumb 16.3966 11.7575
rfemur -14.8 0.00503649 18.1085
rtibia 12.9706
rfoot -14.2586 -15.4008
rtoes -1.36911
lfemur -15.8796 -3.4903 -17.3767
ltibia 20.3383
lfoot -12.1676 -8.849
ltoes 20.7562
322
root 3.74627 28.0603 -29.0117 8.66216 -1.80352 -2.39389
lowerback 3.8859 0.523798 -0.831778
upperback 2.87944 0.673816 -0.671223
thorax 0.773769 0.330083 -0.242669
lowerneck -0.597546 0.283434 -0.103444
upperneck 16.2515 0.0849486 2.10214
head 4.97176 0.155024 0.672369
rclavicle 3.97569e-015 -2.38542e-015
rhumerus -38.3825 -8.46359 -76.5389
rradius 39.6784
rwrist 1.1872
rhand -4.71198 -20.8693
rfingers 7.12502
rthumb 21.0701 -49.7445
lclavicle 3.97569e-015 -2.38542e-015
lhumerus -31.584 -13.1404 78.7005
lradius 37.1166
lwrist 7.63133
lhand -9.48724 -17.2907
lfingers 7.12502
lthumb 16.4774 12.0296
rfemur -14.8723 -0.470924 18.3241
rtibia 13.5769
rfoot -14.6293 -14.7431
rtoes -2.04813
lfemur -15.8158 -3.77834 -17.2817
ltibia 20.3136
lfoot -12.2178 -8.20217
ltoes 20.0431
323
root 3.74948 28.074 -28.965 8.56339 -1.92331 -2.55783
lowerback 3.86153 0.61519 -0.671511
upperback 2.87728 0.80017 -0.659678
thorax 0.786869 0.3954 -0.324308
lowerneck -0.60863 0.267882 -0.242966
upperneck 16.4102 0.0546509 2.20676
head 5.02256 0.13948 0.727389
rclavicle -8.94531e-015 3.18055e-015
rhumerus -38.6654 -8.60803 -76.6851
rradius 39.4813
rwrist 0.988583
rhand -4.94291 -20.7696
rfingers 7.12502
rthumb 20.8483 -49.6694
lclavicle -8.94531e-015 3.18055e-015
lhumerus -31.0861 -12.8746 78.7115
lradius 36.5196
lwrist 7.30133
lhand -9.39262 -16.9062
lfingers 7.12502
lthumb 16.5685 12.4065
rfemur -15.0049 -0.939418 18.5812
rtibia 14.3318
rfoot -14.7806 -14.0564
rtoes -2.74633
lfemur -15.7253 -4.08008 -17.1664
ltibia 20.2371
lfoot -12.2561 -7.55481
ltoes 19.7441
324
root 3.7516 28.0863 -28.9176 8.48544 -2.09795 -2.69451
lowerback 3.81199 0.723842 -0.545909
upperback 2.86162 0.94862 -0.665576
thorax 0.800655 0.471424 -0.404731
lowerneck -0.651876 0.255652 -0.334369
upperneck 16.5974 0.0297058 2.28132
head 5.08776 0.127942 0.765543
rclavicle 4.37326e-015 2.38542e-015
rhumerus -38.9065 -8.69053 -76.8755
rradius 39.1924
rwrist 0.848977
rhand -5.11156 -20.7511
rfingers 7.12502
rthumb 20.6862 -49.6687
lclavicle 4.37326e-015 2.38542e-015
lhumerus -30.6619 -12.5602 78.7025
lradius 36.0561
lwrist 7.02184
lhand -9.29626 -16.4413
lfingers 7.12502
lthumb 16.6612 12.8636
rfemur -15.2062 -1.40102 18.8521
rtibia 15.2553
rfoot -14.7733 -13.3316
rtoes -3.45506
lfemur -15.6302 -4.35934 -17.0552
ltibia 20.1382
lfoot -12.2577 -6.94098
ltoes 19.7937
325
root 3.75104 28.0972 -28.8685 8.4206 -2.28896 -2.78416
lowerback 3.73942 0.833714 -0.498756
upperback 2.83001 1.09658 -0.681061
thorax 0.810358 0.546156 -0.450606
lowerneck -0.713744 0.24743 -0.378194
upperneck 16.8143 0.0121373 2.31874
head 5.16548 0.12088 0.784765
rclavicle 1.76918e-014 -1.74931e-014
rhumerus -39.1228 -8.68997 -77.1065
rradius 38.8446
rwrist 0.781754
rhand -5.20934 -20.9554
rfingers 7.12502
rthumb 20.5923 -49.8832
lclavicle 1.76918e-014 -1.74931e-014
lhumerus -30.3411 -12.2258 78.6928
lradius 35.7432
lwrist 6.84449
lhand -9.23503 -15.9477
lfingers 7.12502
lthumb 16.7202 13.3523
rfemur -15.4436 -1.83592 19.1125
rtibia 16.3233
rfoot -14.6946 -12.587
rtoes -4.11956
lfemur -15.5339 -4.5938 -16.9639
ltibia 20.0356
lfoot -12.1984 -6.39853
ltoes 20.05
326
root 3.74881 28.1068 -28.8179 8.36657 -2.50922 -2.82189
lowerback 3.64663 0.94494 -0.533444
upperback 2.79597 1.24433 -0.702473
thorax 0.827599 0.619636 -0.456137
lowerneck -0.842076 0.248868 -0.399599
upperneck 17.0619 0.00927275 2.33072
head 5.264 0.121347 0.793299
rclavicle -6.95746e-015 1.03368e-014
rhumerus -39.2774 -8.59509 -77.3684
rradius 38.4378
rwrist 0.785454
rhand -5.25092 -21.4323
rfingers 7.12502
rthumb 20.5523 -50.3643
lclavicle -6.95746e-015 1.03368e-014
lhumerus -30.099 -11.8892 78.6948
lradius 35.5668
lwrist 6.79084
lhand -9.20172 -15.498
lfingers 7.12502
lthumb 16.7523 13.7992
rfemur -15.7214 -2.24368 19.345
rtibia 17.5393
rfoot -14.5854 -11.775
rtoes -4.7317
lfemur -15.4387 -4.76189 -16.9058
ltibia 19.9316
lfoot -12.0969 -5.89987
ltoes 20.1074
327
root 3.74357 28.1157 -28.7647 8.30359 -2.70961 -2.79855
lowerback 3.5384 1.04268 -0.670598
upperback 2.77652 1.37195 -0.721983
thorax 0.865912 0.681513 -0.401036
lowerneck -1.05323 0.260858 -0.416
upperneck 17.3231 0.0218384 2.33037
head 5.38089 0.129402 0.798157
rclavicle -1.66979e-014 7.95139e-015
rhumerus -39.3581 -8.40852 -77.6481
rradius 37.9784
rwrist 0.846604
rhand -5.15717 -22.0269
rfingers 7.12502
rthumb 20.6424 -50.9493
lclavicle -1.66979e-014 7.95139e-015
lhumerus -29.9206 -11.5639 78.7154
lradius 35.5219
lwrist 6.86194
lhand -9.21761 -15.1224
lfingers 7.12502
lthumb 16.737 14.1761
rfemur -15.9636 -2.59941 19.5324
rtibia 18.8226
rfoot -14.4938 -10.9264
rtoes -5.21452
lfemur -15.3183 -4.86701 -16.8864
ltibia 19.8095
lfoot -11.915 -5.49907
ltoes 20.1218
